<?xml version="1.0" encoding="UTF-8"?>
<svg id="Layer_1" data-name="Layer 1" xmlns="http://www.w3.org/2000/svg" viewBox="0 0 701.49 850">
  <path d="M598.46,104.5C532.02,37.11,444.05,0,350.75,0S169.47,37.11,103.03,104.5C36.59,171.88,0,261.11,0,355.74v138.52c0,94.63,36.59,183.85,103.03,251.24,66.44,67.39,154.42,104.5,247.72,104.5s181.28-37.11,247.71-104.5c66.44-67.39,103.03-156.61,103.03-251.24v-138.52c0-94.63-36.59-183.86-103.03-251.24ZM86.3,298.35c.2-8.01.58-16.14,1.81-24.07,11.94,31.9,36.85,61.6,65.1,80.68,42.1,28.43,98.65,48.29,136.33,84.16,24.14,22.98,32.22,64,35.4,96,1.72,17.41,1.71,35.46,1.71,53.83-9.86-13.61-18.91-26.39-31.84-37.38-12.6-10.71-26.6-19.65-40.99-27.73-24.79-13.91-50.71-26.01-75.54-39.65-25.39-13.95-46.72-34.25-61.78-59-12.89-21.18-21.12-44.94-25.7-69.24-3.57-18.95-4.99-38.33-4.5-57.6ZM326.5,732.34c-209.71,0-240.18-246.8-240.18-246.8,257.8,52.71,240.18,246.8,240.18,246.8ZM361.13,732.34h-20.76v-323.16l-.13,1c0-52.87-46.28-65.52-46.28-65.52l.09-.02c-51.54-18.15-87.66-60.28-87.66-109.36,0-65.66,64.63-118.9,144.36-118.9s144.36,53.23,144.36,118.9c0,49.1-36.15,91.24-87.71,109.38h.01s-.05.02-.1.03c-.72.25-1.46.48-2.19.73-9.3,3.36-44,18.97-44,64.77v322.16ZM374.99,732.34s-17.62-194.09,240.18-246.8c0,0-30.47,246.8-240.18,246.8ZM610.69,356.03c-4.58,24.33-12.82,48.11-25.72,69.31-15.08,24.77-36.43,45.09-61.84,59.05-24.85,13.65-50.79,25.77-75.61,39.69-14.41,8.08-28.42,17.03-41.03,27.75-12.94,11-22,23.8-31.87,37.42,0-18.38-.01-36.45,1.71-53.88,3.18-32.04,11.27-73.09,35.43-96.1,37.72-35.91,94.32-55.78,136.46-84.24,28.27-19.09,53.21-48.83,65.16-80.76,1.23,7.94,1.61,16.07,1.81,24.09.49,19.29-.93,38.68-4.5,57.66Z" fill="#231f20"/>
</svg>