<?xml version="1.0" encoding="UTF-8"?>
<svg id="Layer_1" data-name="Layer 1" xmlns="http://www.w3.org/2000/svg" viewBox="0 0 1500 783.07">
  <path d="M840.22,38.06C816.03,13.52,783.98,0,750,0s-66.02,13.52-90.22,38.06c-24.2,24.54-37.53,57.04-37.53,91.51v50.45c0,34.47,13.33,66.96,37.53,91.51,24.2,24.54,56.24,38.06,90.22,38.06s66.02-13.52,90.22-38.06c24.2-24.54,37.53-57.04,37.53-91.51v-50.45c0-34.47-13.33-66.96-37.53-91.51ZM653.68,108.67c.07-2.92.21-5.88.66-8.77,4.35,11.62,13.42,22.44,23.71,29.38,15.34,10.36,35.93,17.59,49.65,30.65,8.79,8.37,11.74,23.31,12.89,34.97.63,6.34.62,12.92.62,19.6-3.59-4.96-6.89-9.61-11.6-13.61-4.59-3.9-9.69-7.16-14.93-10.1-9.03-5.07-18.47-9.47-27.51-14.44-9.25-5.08-17.02-12.48-22.5-21.49-4.7-7.71-7.69-16.37-9.36-25.22-1.3-6.9-1.82-13.96-1.64-20.98ZM741.17,266.73c-76.38,0-87.48-89.89-87.48-89.89,93.9,19.2,87.48,89.89,87.48,89.89ZM753.78,266.73h-7.56v-117.7l-.05.36c0-19.26-16.86-23.86-16.86-23.86h.03c-18.77-6.62-31.93-21.96-31.93-39.84,0-23.92,23.54-43.31,52.58-43.31s52.58,19.39,52.58,43.31c0,17.88-13.17,33.23-31.95,39.84h0s-.02,0-.04.01c-.26.09-.53.18-.8.26-3.39,1.22-16.02,6.91-16.02,23.59v117.34ZM758.83,266.73s-6.42-70.69,87.48-89.89c0,0-11.1,89.89-87.48,89.89ZM844.68,129.67c-1.67,8.86-4.67,17.52-9.37,25.24-5.49,9.02-13.27,16.42-22.52,21.51-9.05,4.97-18.5,9.39-27.54,14.46-5.25,2.94-10.35,6.2-14.94,10.11-4.71,4.01-8.01,8.67-11.61,13.63,0-6.69,0-13.28.62-19.62,1.16-11.67,4.1-26.62,12.9-35,13.74-13.08,34.35-20.32,49.7-30.68,10.3-6.95,19.38-17.78,23.73-29.41.45,2.89.58,5.85.66,8.78.18,7.03-.34,14.09-1.64,21Z" fill="#fff"/>
  <g>
    <g>
      <path d="M347.97,759.6l-6.47-.85c-1.4-.23-2.44.43-2.98,1.88-1.37,4.14-3.66,7.26-6.83,9.26-3.19,2.02-7.01,3.05-11.35,3.05-4.61,0-8.46-1.07-11.45-3.2-3-2.13-5.25-4.95-6.66-8.39-1.44-3.48-2.16-7.32-2.16-11.42s.73-7.96,2.17-11.47c1.42-3.47,3.66-6.31,6.66-8.43,3-2.12,6.85-3.2,11.45-3.2,7.54,0,12.86,2.73,16.26,8.32.98,1.81,2.57,1.62,3.16,1.4l6.46-1.64c1.57-.52,1.8-1.52,1.8-2.08,0-.4-.11-.83-.35-1.31-2.62-4.6-6.3-8.23-10.93-10.8-4.63-2.56-10.15-3.86-16.4-3.86-6.6,0-12.38,1.45-17.19,4.29-4.81,2.86-8.5,6.84-10.98,11.81-2.46,4.95-3.71,10.66-3.71,16.96s1.25,12.01,3.71,16.96c2.48,4.98,6.17,8.96,10.98,11.81,4.8,2.85,10.58,4.29,17.18,4.29,7.3,0,13.47-1.7,18.34-5.05s8.63-8.43,11.21-15.19c.16-.65.19-.88.19-1.04,0-.65-.27-1.79-2.11-2.12Z" fill="#fff"/>
      <path d="M411.65,721.05c-4.75-2.85-10.47-4.3-17.02-4.3s-12.26,1.45-16.97,4.3c-4.72,2.86-8.35,6.83-10.8,11.81-2.43,4.95-3.67,10.66-3.67,16.96s1.23,12.02,3.67,17c2.45,5.02,6.09,9,10.8,11.85,4.71,2.85,10.42,4.3,16.97,4.3s12.35-1.45,17.06-4.3c4.72-2.85,8.35-6.84,10.8-11.85,2.43-4.98,3.67-10.7,3.67-17s-1.23-12.01-3.67-16.96c-2.45-4.98-6.1-8.95-10.85-11.81ZM414.74,749.83c0,4.16-.73,8.04-2.17,11.55-1.42,3.47-3.65,6.31-6.62,8.44-2.96,2.12-6.77,3.19-11.32,3.19s-8.29-1.07-11.28-3.2c-3-2.13-5.23-4.96-6.62-8.43-1.41-3.51-2.13-7.4-2.13-11.56s.72-7.96,2.13-11.48c1.39-3.46,3.62-6.3,6.62-8.43,2.99-2.12,6.78-3.19,11.28-3.19s8.36,1.07,11.32,3.19c2.97,2.13,5.2,4.97,6.62,8.44,1.44,3.51,2.17,7.37,2.17,11.47Z" fill="#fff"/>
      <path d="M492.42,718.56c-.46-.46-1.09-.69-1.86-.69h-44.46c-.77,0-1.4.23-1.86.69-.46.46-.69,1.08-.69,1.85v58.99c0,.78.23,1.4.69,1.85.46.46,1.08.69,1.86.69h5.73c.77,0,1.4-.23,1.86-.69.46-.46.69-1.09.69-1.86v-24.79c0-.37.08-.63.25-.79.17-.17.43-.25.79-.25h21.29c.78,0,1.4-.23,1.86-.69.46-.46.69-1.08.69-1.86v-4.62c0-.78-.23-1.4-.69-1.86-.46-.46-1.08-.69-1.85-.69h-21.29c-.54,0-.73-.19-.8-.25-.16-.16-.24-.42-.24-.79v-14.19c0-.37.08-.63.24-.79.17-.17.43-.25.8-.25h35.14c.77,0,1.4-.23,1.86-.69.46-.46.69-1.09.69-1.86v-4.62c0-.77-.23-1.4-.69-1.85h0Z" fill="#fff"/>
      <path d="M556.2,718.56c-.46-.46-1.09-.69-1.85-.69h-44.46c-.77,0-1.4.23-1.86.69-.46.46-.69,1.08-.69,1.85v58.99c0,.78.23,1.4.69,1.85.46.46,1.08.69,1.86.69h5.73c.77,0,1.4-.23,1.86-.69.46-.46.69-1.09.69-1.86v-24.79c0-.37.08-.63.25-.79.17-.17.43-.25.79-.25h21.29c.78,0,1.4-.23,1.86-.69.46-.46.69-1.08.69-1.86v-4.62c0-.78-.23-1.4-.69-1.86-.46-.46-1.08-.69-1.85-.69h-21.29c-.54,0-.73-.19-.8-.25-.16-.16-.24-.42-.24-.79v-14.19c0-.37.08-.63.24-.79.17-.17.43-.25.8-.25h35.14c.77,0,1.4-.23,1.86-.69.46-.46.69-1.09.69-1.86v-4.62c0-.77-.23-1.4-.69-1.85h0Z" fill="#fff"/>
      <path d="M619.06,717.78h-45.4c-.77,0-1.4.24-1.86.69-.46.46-.69,1.08-.69,1.86v59.08c0,.78.23,1.4.69,1.86.46.46,1.08.69,1.86.69h45.4c.78,0,1.4-.23,1.86-.69.46-.46.69-1.08.69-1.86v-4.62c0-.77-.23-1.4-.69-1.86-.46-.46-1.08-.69-1.85-.69h-36.08c-.37,0-.62-.08-.79-.25-.17-.17-.25-.43-.25-.79v-16.58c0-.37.08-.63.25-.79.17-.17.43-.25.79-.25h21.37c.78,0,1.4-.23,1.86-.69s.69-1.09.69-1.86v-4.62c0-.77-.23-1.4-.69-1.86-.46-.46-1.09-.69-1.85-.69h-21.37c-.54,0-.73-.19-.8-.25-.16-.16-.25-.43-.25-.79v-14.28c0-.36.08-.63.25-.79.17-.17.43-.25.79-.25h36.08c.78,0,1.4-.23,1.86-.69.46-.46.69-1.08.69-1.86v-4.62c0-.77-.23-1.4-.69-1.85-.46-.46-1.08-.7-1.86-.7Z" fill="#fff"/>
      <path d="M686.69,717.78h-45.4c-.77,0-1.4.24-1.86.69-.46.46-.69,1.08-.69,1.86v59.08c0,.78.23,1.4.69,1.86.46.46,1.08.69,1.86.69h45.4c.78,0,1.4-.23,1.86-.69.46-.46.69-1.08.69-1.86v-4.62c0-.77-.23-1.4-.69-1.86-.46-.46-1.08-.69-1.85-.69h-36.08c-.37,0-.62-.08-.79-.25-.17-.17-.25-.43-.25-.79v-16.58c0-.37.08-.63.25-.79.17-.17.43-.25.79-.25h21.37c.78,0,1.41-.23,1.86-.69.46-.46.69-1.09.69-1.86v-4.62c0-.77-.23-1.4-.69-1.86-.46-.46-1.09-.69-1.86-.69h-21.37c-.54,0-.73-.19-.8-.25-.16-.16-.25-.43-.25-.79v-14.28c0-.36.08-.63.25-.79.17-.17.43-.25.79-.25h36.08c.78,0,1.4-.23,1.86-.69.46-.46.69-1.08.69-1.86v-4.62c0-.77-.23-1.4-.69-1.85-.46-.46-1.08-.7-1.86-.7Z" fill="#fff"/>
      <path d="M777.61,722.35c-3.83-3.03-8.79-4.57-14.75-4.57h-28.3c-.77,0-1.4.24-1.86.69s-.69,1.08-.69,1.86v59.08c0,.77.23,1.4.69,1.86.46.46,1.08.69,1.86.69h5.73c.77,0,1.4-.23,1.86-.69.46-.46.69-1.09.69-1.86v-22.57c0-.66.2-1.04,1.21-1.04,11.4,0,17.57-.03,18.83-.09,6.01-.11,10.98-1.69,14.77-4.69,3.85-3.04,5.8-7.84,5.8-14.27s-1.97-11.32-5.84-14.4ZM772.54,736.75c0,2.8-.69,4.89-2.04,6.22-1.4,1.38-3.06,2.21-5.06,2.53-2.09.34-4.73.5-7.87.5h-13.68c-.37,0-.63-.08-.79-.25-.17-.17-.25-.43-.25-.79v-16.41c0-.37.08-.62.25-.79s.43-.25.79-.25h13.68c3.14,0,5.79.17,7.87.5,1.97.31,3.67,1.17,5.06,2.53,1.35,1.33,2.04,3.42,2.04,6.21Z" fill="#fff"/>
      <path d="M838.66,756.1c-.27-.43-.31-.61-.31-.64.01-.27.64-.49.79-.54,4.24-1.06,7.66-3.08,10.18-6.01,2.53-2.95,3.82-7.04,3.82-12.16,0-6.48-1.97-11.32-5.84-14.4-3.83-3.03-8.79-4.57-14.75-4.57h-30.1c-.78,0-1.4.24-1.86.69-.46.46-.69,1.08-.69,1.86v59.08c0,.78.23,1.4.69,1.85.46.46,1.08.69,1.86.69h5.73c.77,0,1.4-.23,1.86-.69.46-.46.69-1.09.69-1.86v-22.57c0-.37.08-.62.25-.79.17-.16.43-.25.79-.25h13.25c.65,0,1.13.27,1.51.86l15.64,23.76c.65,1.01,1.61,1.55,2.77,1.55h7.09c2.13,0,2.29-1.43,2.29-1.86,0-.57-.17-1.07-.47-1.45l-15.2-22.55ZM842.22,736.75c0,2.8-.69,4.89-2.04,6.21-1.41,1.38-3.06,2.21-5.06,2.53-2.09.34-4.73.5-7.87.5h-15.47c-.37,0-.63-.08-.79-.25s-.25-.43-.25-.79v-16.41c0-.37.08-.62.25-.79.17-.17.43-.25.79-.25h15.47c3.14,0,5.79.17,7.87.5,1.97.31,3.67,1.17,5.07,2.53,1.35,1.32,2.04,3.42,2.04,6.21Z" fill="#fff"/>
      <path d="M915.74,721.05c-4.75-2.85-10.47-4.3-17.02-4.3s-12.26,1.45-16.98,4.3c-4.72,2.86-8.35,6.83-10.8,11.81-2.43,4.95-3.67,10.66-3.67,16.96s1.23,12.02,3.67,17c2.45,5.01,6.09,9,10.8,11.85,4.71,2.85,10.42,4.3,16.98,4.3s12.35-1.45,17.06-4.3c4.72-2.86,8.36-6.84,10.8-11.85,2.43-4.98,3.67-10.7,3.67-17s-1.23-12.01-3.67-16.96c-2.45-4.98-6.1-8.95-10.85-11.81ZM918.83,749.83c0,4.15-.73,8.04-2.17,11.55-1.42,3.47-3.65,6.31-6.62,8.44-2.96,2.12-6.77,3.19-11.32,3.19s-8.29-1.07-11.28-3.2c-3-2.13-5.23-4.97-6.62-8.43-1.41-3.51-2.13-7.4-2.13-11.56s.72-7.96,2.13-11.48c1.39-3.46,3.62-6.3,6.62-8.43,2.99-2.12,6.78-3.19,11.28-3.19s8.36,1.07,11.32,3.19c2.97,2.13,5.2,4.97,6.62,8.44,1.44,3.51,2.17,7.37,2.17,11.47Z" fill="#fff"/>
      <path d="M995.59,717.78h-5.82c-1.62,0-2.55.93-2.55,2.56l.09,23.59c0,6.96-.03,11.07-.09,12.19-.27,5.55-1.67,9.8-4.17,12.62-2.46,2.78-6.47,4.19-11.92,4.19-3.91,0-7.54-1.35-10.81-4.02-3.28-2.68-5.61-6.51-6.94-11.44-.52-1.65-1.58-1.9-2.17-1.9-.26,0-.58.07-1.04.22l-5.57,2.14c-1.45.58-1.75,1.59-1.75,2.33,0,.41.05.7.11.79.99,3.84,2.7,7.45,5.08,10.73,2.39,3.29,5.55,6.03,9.4,8.13,3.86,2.1,8.44,3.17,13.61,3.17,8.25,0,14.72-1.94,19.25-5.78,4.56-3.86,7.08-9.72,7.49-17.42.28-5.4.42-12.15.42-20.05l-.09-19.49c0-1.62-.93-2.55-2.55-2.55Z" fill="#fff"/>
      <path d="M1066.8,717.78h-45.4c-.78,0-1.4.24-1.85.69-.46.46-.69,1.08-.69,1.86v59.08c0,.78.23,1.4.69,1.85.46.46,1.08.69,1.86.69h45.4c.77,0,1.4-.23,1.86-.69s.69-1.08.69-1.86v-4.62c0-.77-.23-1.4-.69-1.86-.46-.45-1.09-.68-1.85-.68h-36.08c-.37,0-.62-.08-.79-.25-.06-.06-.25-.24-.25-.79v-16.58c0-.54.19-.73.25-.79.17-.17.43-.25.79-.25h21.37c.78,0,1.4-.23,1.86-.69.46-.46.69-1.08.69-1.86v-4.62c0-.77-.23-1.4-.69-1.86-.46-.46-1.09-.69-1.85-.69h-21.37c-.54,0-.73-.19-.8-.26-.16-.16-.24-.42-.24-.78v-14.28c0-.37.08-.62.25-.79s.43-.25.79-.25h36.08c.77,0,1.4-.23,1.86-.69s.69-1.08.69-1.86v-4.62c0-.77-.23-1.4-.69-1.86s-1.09-.69-1.86-.69Z" fill="#fff"/>
      <path d="M1143.25,759.6l-6.47-.85c-1.4-.22-2.45.43-2.98,1.88-1.37,4.14-3.66,7.26-6.83,9.26-3.19,2.02-7.01,3.05-11.35,3.05-4.61,0-8.46-1.07-11.45-3.2-3.01-2.13-5.25-4.95-6.66-8.39-1.44-3.48-2.17-7.32-2.17-11.42s.73-7.96,2.17-11.47c1.42-3.47,3.66-6.31,6.66-8.43,3-2.12,6.85-3.2,11.45-3.2,7.54,0,12.86,2.73,16.26,8.33.97,1.81,2.59,1.61,3.16,1.4l6.46-1.64c1.57-.52,1.8-1.52,1.8-2.08,0-.39-.11-.82-.36-1.31-2.62-4.6-6.3-8.23-10.93-10.8-4.63-2.56-10.15-3.86-16.4-3.86-6.6,0-12.38,1.45-17.19,4.29-4.81,2.86-8.5,6.84-10.98,11.81-2.46,4.95-3.71,10.66-3.71,16.96s1.25,12.01,3.71,16.96c2.48,4.98,6.17,8.95,10.98,11.81,4.8,2.85,10.58,4.29,17.19,4.29,7.3,0,13.47-1.7,18.34-5.05,4.86-3.35,8.62-8.43,11.21-15.19.16-.66.19-.87.19-1.03,0-.65-.27-1.79-2.11-2.12Z" fill="#fff"/>
      <path d="M1210.84,718.48c-.46-.46-1.09-.69-1.86-.69h-50.53c-.78,0-1.4.24-1.85.69-.46.46-.69,1.08-.69,1.86v4.62c0,.78.23,1.4.69,1.85.45.46,1.08.7,1.86.7h18.81c.37,0,.62.08.79.25s.25.42.25.79v50.87c0,.78.23,1.4.69,1.85.46.46,1.08.69,1.86.69h5.73c.78,0,1.4-.23,1.85-.69.46-.46.69-1.08.69-1.86v-50.87c0-.37.08-.62.25-.79s.43-.25.79-.25h18.81c.77,0,1.4-.23,1.86-.69s.69-1.08.69-1.86v-4.62c0-.77-.23-1.4-.69-1.86Z" fill="#fff"/>
    </g>
    <g>
      <path d="M668.13,591.01c-.82,7.95-.22,13.43,1.33,18.32,2.77,8.74,10.35,14.23,18.86,16.74,8.75,2.58,17.99,2.38,26.89.74,3.88-.72,7.74-2.43,11.32-4.06,6.01-2.73,11.93-6.17,17.09-10.3,3.18-2.54,8.71-7.21,7.02-11.95-.28-.8-.78-1.51-1.37-2.11-2.87-2.95-6.55-.83-8.93.56-6.8,3.95-10.77,9.78-19.34,9.82-2.52.01-4.8-.75-6.34-2.3-2.59-2.61-2.31-6.83-1.85-10.18,2.42-17.41,7.62-34.07,12.18-51,4.18-15.5,8.14-31.07,11.89-46.68,3.13-13.04,3.94-29.85-2.26-42.23-6.51-16.56-20-26-37.37-28.19-8.49-1.07-17.12-.91-25.64-.22-24.01,1.95-37.71,12.64-58.47,24.05-4.03-8.55-5.91-15.43-20.83-21.08-12.36-4.69-38.84-4.82-43.14,3.19-4.14,7.71,7.51,9.8,11.51,11.69,10.09,4.76,8.9,15.96,7.1,26.95l-21.42,120.59c-1.34,6.45-3.31,10.12-6.32,13.76-5.88,7.13-14.63,5.09-15.96,14.36v4.18h80.48c3.27-17.85-16.56-7.39-12.26-27.95l20.53-114.33c13.75-22.63,75.35-41.87,76-1.74.5,30.57-14.7,69.73-19.88,103.33l-.84,6.02Z" fill="#fff"/>
      <path d="M1097.89,591.01c-.82,7.95-.22,13.43,1.33,18.32,2.77,8.74,10.35,14.23,18.86,16.74,8.75,2.58,17.99,2.38,26.89.74,3.88-.72,7.74-2.43,11.32-4.06,6.01-2.73,11.93-6.17,17.09-10.3,3.18-2.54,8.71-7.21,7.02-11.95-.28-.8-.78-1.51-1.37-2.11-2.87-2.95-6.55-.83-8.93.56-6.8,3.95-10.77,9.78-19.34,9.82-2.52.01-4.8-.75-6.34-2.3-2.59-2.61-2.31-6.83-1.85-10.18,2.42-17.41,7.62-34.07,12.18-51,4.18-15.5,8.14-31.07,11.89-46.68,3.13-13.04,3.94-29.85-2.26-42.23-6.51-16.56-20-26-37.37-28.19-8.49-1.07-17.12-.91-25.64-.22-24.01,1.95-37.71,12.64-58.47,24.05-4.03-8.55-5.91-15.43-20.83-21.08-12.36-4.69-38.84-4.82-43.14,3.19-4.14,7.71,7.51,9.8,11.51,11.69,10.09,4.76,8.9,15.96,7.1,26.95l-21.42,120.59c-1.34,6.45-3.31,10.12-6.32,13.76-5.88,7.13-14.63,5.09-15.96,14.36v4.18h80.48c3.27-17.85-16.56-7.39-12.26-27.95l20.53-114.33c13.75-22.63,75.35-41.87,76-1.74.5,30.57-14.7,69.73-19.88,103.33l-.84,6.02Z" fill="#fff"/>
      <path d="M1497.18,597.26c5.1,3.23-1.96,13.15-4.93,15.77-18.97,16.75-68.47,26.45-76.65-5.94-10.95,8.26-17.45,11.22-27.28,15.04-46.36,17.99-91.84-2.66-96.09-54.5-3.52-42.91,16.71-92.21,51.16-118.07,29.79-22.37,75.45-33.97,104.7-4.69,12.91-8.9,24.28-15.94,40.16-12.62,19.02,3.98,10.61,12.11,4.69,21.37-5.87,9.17-9.41,30.74-11.75,41.88-7.07,33.57-16.04,66.8-22.01,100.62,3.4,26.13,29.58-4.2,38,1.14ZM1442.08,476.13c-2.16-15.42-18.23-29.25-35.37-27.9-47.99,3.8-74.82,88.04-64.2,127.93,3.98,14.95,17.63,25.33,33.27,23.38,19.31-2.41,33.7-16.79,43.75-32.29l22.56-91.13Z" fill="#fff"/>
      <path d="M868.72,428.22c138.89-13.48,111.83,180.54-6.36,198.76-149.07,22.98-120.54-186.45,6.36-198.76ZM872.97,448.25c-48.2,6.61-67.88,84.74-64.2,125.11,4.25,46.55,53.64,44.22,78.86,12.9,25.52-31.7,56.26-147.75-14.66-138.02Z" fill="#fff"/>
      <path d="M333.83,428.22c141.3-13.26,110.03,193.56-19.02,200.44-135.86,7.25-101.16-189.16,19.02-200.44ZM336.61,448.22c-48.5,7.64-67,90.01-60.68,130.26,6.67,42.47,54.3,36.11,76.8,7.78,25.45-32.03,53.73-149.05-16.12-138.04Z" fill="#fff"/>
      <path d="M101.38,310.9h.96-.96c10.78,0,20.61,7.76,20.93,18.99.12,4.48-1.03,9.25-1.69,13.68-.94,6.31-3.92,18.19-3.92,18.19-12.19,54.74-22.09,110.13-33.65,165,16.14-12.79,33.41-24.41,49.45-37.33,7.27-5.86,29.68-22.41,31.67-30.05,3.58-13.7-7.88-14.76-9.42-20.3l.02-6.28h79.77v.6c.04,2.99-.24,4.12-.54,5.36-2.9,12.28-14.18,12.82-23.17,18.54-15.36,9.76-42.5,31.47-58.73,45.38q-1.81,1.55-7.15,6.46c-.87,3.68,24.41,62.85,28.21,70.26,3.02,5.91,10.94,20.28,18.17,20.38,10.65.15,17.89-17.76,24.5-9.97,6.91,10.1-16.54,31.57-25.18,35.22-50.29,21.24-68.65-56.55-86.8-86.75l-30.57,22.49c-3.2,15.99-10.09,42.66-4.7,50.03,2.71,3.71,10.13,3.9,5.87,14.25L0,625.53v-6.77c10.23-2.77,15.61-5.57,19.19-15.95l50.74-243.33s3.1-16.34-1.63-22.78c-4.72-6.44-15.38-14.66-15.39-14.66-1.69-1.07-2.8-2.96-2.8-5.1,0-3.34,2.7-6.04,6.04-6.04h45.22Z" fill="#fff"/>
      <path d="M514.42,593.55c2.53,1.31,4.53,3.86,3.79,6.79-.47,1.87-1.08,3.36-1.84,4.46-5.84,8.48-13.55,14.75-23.13,18.83-9.59,4.08-19.62,5.38-30.08,3.9-21.72-2.95-30.96-15.16-27.73-36.62,2.73-13.17,5.46-26.07,8.21-38.71,2.68-12.33,9.78-40.43,12.33-52.77,3.09-14.95,9.1-29.38,7.18-44.87-.76-6.11-3.2-10.94-7.32-14.55-1.39-1.55-2.06-3.11-1.98-4.72.08-1.61.56-3.03,1.45-4.25,3.87-5.3,13.9-3.07,19.51-2.25,9.56,1.4,19.44,4.18,26.4,11.27,8.6,8.75,9.11,21.26,6.85,32.69-3.38,17.11-11.76,49.83-15.44,66.89-2.12,9.84-4.29,19.67-6.47,29.49-1.13,5.07-2.24,10.15-3.4,15.21-1.04,4.53-2.57,9.03-2.05,13.74.12,1.11.37,2.23.97,3.17.95,1.5,2.7,2.35,4.46,2.62,3.35.52,6.8-.31,9.73-1.92,2.68-1.48,5.29-3.13,7.61-5.13,2.43-2.09,4.48-4.57,8.03-4.18.98.11,1.99.43,2.93.91ZM495.07,349.39c1.96-.07,3.96.07,5.98.44,5.02.91,9.83,3.23,13.44,6.84,7.04,7.05,8.64,18.5,5.08,27.8-5.17,13.47-21.66,18.85-34.61,13.93-4.03-1.53-7.73-4.05-10.41-7.43-2.98-3.75-4.61-8.47-5.05-13.24-1.43-15.62,10.85-27.82,25.58-28.33Z" fill="#fff"/>
      <path d="M1277.56,593.55c2.53,1.31,4.53,3.86,3.79,6.79-.47,1.87-1.08,3.36-1.84,4.46-5.84,8.48-13.55,14.75-23.13,18.83-9.59,4.08-19.62,5.38-30.08,3.9-21.72-2.95-30.96-15.16-27.73-36.62,2.73-13.17,5.46-26.07,8.21-38.71,2.68-12.33,9.78-40.43,12.33-52.77,3.09-14.95,9.1-29.38,7.18-44.87-.76-6.11-3.2-10.94-7.32-14.55-1.39-1.55-2.06-3.11-1.98-4.72.08-1.61.56-3.03,1.45-4.25,3.87-5.3,13.9-3.07,19.51-2.25,9.56,1.4,19.44,4.18,26.4,11.27,8.6,8.75,9.11,21.26,6.85,32.69-3.38,17.11-11.76,49.83-15.44,66.89-2.12,9.84-4.29,19.67-6.47,29.49-1.13,5.07-2.24,10.15-3.4,15.21-1.04,4.53-2.57,9.03-2.05,13.74.12,1.11.37,2.23.97,3.17.95,1.5,2.7,2.35,4.46,2.62,3.35.52,6.8-.31,9.73-1.92,2.68-1.48,5.29-3.13,7.61-5.13,2.43-2.09,4.48-4.57,8.03-4.18.98.11,1.99.43,2.93.91ZM1258.21,349.39c1.96-.07,3.96.07,5.98.44,5.02.91,9.83,3.23,13.44,6.84,7.04,7.05,8.64,18.5,5.08,27.8-5.17,13.47-21.66,18.85-34.61,13.93-4.03-1.53-7.73-4.05-10.41-7.43-2.98-3.75-4.61-8.47-5.05-13.24-1.43-15.62,10.85-27.82,25.58-28.33Z" fill="#fff"/>
    </g>
  </g>
</svg>