<svg width="1080" height="1080" viewBox="0 0 1080 1080" fill="none" xmlns="http://www.w3.org/2000/svg">
<rect width="1080" height="1080" fill="#F8F5EB"/>
<g clip-path="url(#clip0_176_139)">
<path d="M824.473 171.114C748.04 93.6547 646.839 51 539.506 51C432.173 51 330.96 93.6547 254.527 171.114C178.093 248.561 136 351.123 136 459.892V619.108C136 727.877 178.093 830.428 254.527 907.886C330.96 985.345 432.173 1028 539.506 1028C646.839 1028 748.052 985.345 824.473 907.886C900.907 830.428 943 727.877 943 619.108V459.892C943 351.123 900.907 248.561 824.473 171.114ZM235.28 393.927C235.51 384.72 235.947 375.376 237.362 366.261C251.098 402.927 279.755 437.064 312.254 458.995C360.686 491.673 425.742 514.5 469.089 555.73C496.86 582.143 506.155 629.292 509.814 666.073C511.792 686.084 511.781 706.831 511.781 727.946C500.438 712.303 490.027 697.613 475.152 684.981C460.657 672.671 444.551 662.395 427.997 653.108C399.478 637.12 369.659 623.212 341.095 607.534C311.886 591.499 287.348 568.166 270.023 539.718C255.194 515.374 245.726 488.064 240.457 460.133C236.35 438.352 234.717 416.076 235.28 393.927ZM511.608 892.76C270.356 892.76 235.303 609.085 235.303 609.085C531.879 669.671 511.608 892.76 511.608 892.76ZM551.447 892.76H527.564V521.316L527.415 522.466C527.415 461.696 474.174 447.156 474.174 447.156L474.278 447.133C414.986 426.271 373.433 377.847 373.433 321.434C373.433 245.963 447.784 184.769 539.506 184.769C631.228 184.769 705.579 245.952 705.579 321.434C705.579 377.87 663.991 426.306 604.676 447.156H604.688C604.688 447.156 604.63 447.179 604.573 447.191C603.745 447.478 602.893 447.742 602.053 448.03C591.355 451.892 551.435 469.834 551.435 522.477V892.772L551.447 892.76ZM567.392 892.76C567.392 892.76 547.121 669.671 843.697 609.085C843.697 609.085 808.644 892.76 567.392 892.76ZM838.543 460.225C833.274 488.19 823.795 515.523 808.954 539.891C791.606 568.362 767.045 591.718 737.813 607.764C709.225 623.453 679.384 637.384 650.831 653.384C634.253 662.671 618.136 672.958 603.629 685.28C588.743 697.923 578.321 712.636 566.966 728.291C566.966 707.165 566.954 686.395 568.933 666.361C572.591 629.533 581.898 582.35 609.692 555.902C653.086 514.627 718.199 491.788 766.677 459.076C799.199 437.133 827.89 402.95 841.638 366.249C843.053 375.375 843.49 384.72 843.72 393.938C844.283 416.111 842.65 438.398 838.543 460.214V460.225Z" fill="#313D66"/>
</g>
<defs>
<clipPath id="clip0_176_139">
<rect width="807" height="977" fill="white" transform="translate(136 51)"/>
</clipPath>
</defs>
</svg>
